<svg width="41" height="32" viewBox="0 0 41 32" fill="none" xmlns="http://www.w3.org/2000/svg">
<rect x="0.5" y="6.95453" width="11.878" height="19.4545" fill="#C4C4C4" stroke="black"/>
<path d="M13.5 27.309V6.10574L22.5 0.86938V15.8678V31.2363L13.5 27.309Z" fill="#C4C4C4" stroke="black"/>
<mask id="path-3-inside-1" fill="white">
<path fill-rule="evenodd" clip-rule="evenodd" d="M41 1.05785L23 0V32L41 30.4132V26L34 25.5714V23.4898L41 23V17L34 16.5714V14.4898L41 14V8L34 7.57143V5.4898L41 5V1.05785Z"/>
</mask>
<path fill-rule="evenodd" class='rotate-bit' clip-rule="evenodd" d="M41 1.05785L23 0V32L41 30.4132V26L34 25.5714V23.4898L41 23V17L34 16.5714V14.4898L41 14V8L34 7.57143V5.4898L41 5V1.05785Z" fill="#C4C4C4">
                    
</path>
<path  d="M23 0L23.0587 -0.998278L22 -1.06049V0H23ZM41 1.05785H42V0.114895L41.0587 0.0595737L41 1.05785ZM23 32H22V33.092L23.0878 32.9961L23 32ZM41 30.4132L41.0878 31.4094L42 31.3289V30.4132H41ZM41 26H42V25.0594L41.0611 25.0019L41 26ZM34 25.5714H33V26.5121L33.9389 26.5696L34 25.5714ZM34 23.4898L33.9302 22.4922L33 22.5573V23.4898H34ZM41 23L41.0698 23.9976L42 23.9325V23H41ZM41 17H42V16.0594L41.0611 16.0019L41 17ZM34 16.5714H33V17.5121L33.9389 17.5696L34 16.5714ZM34 14.4898L33.9302 13.4922L33 13.5573V14.4898H34ZM41 14L41.0698 14.9976L42 14.9325V14H41ZM41 8H42V7.05935L41.0611 7.00187L41 8ZM34 7.57143H33V8.51208L33.9389 8.56956L34 7.57143ZM34 5.4898L33.9302 4.49223L33 4.55732V5.4898H34ZM41 5L41.0698 5.99756L42 5.93247V5H41ZM22.9413 0.998278L40.9413 2.05613L41.0587 0.0595737L23.0587 -0.998278L22.9413 0.998278ZM24 32V0H22V32H24ZM40.9122 29.4171L22.9122 31.0039L23.0878 32.9961L41.0878 31.4094L40.9122 29.4171ZM40 26V30.4132H42V26H40ZM41.0611 25.0019L34.0611 24.5733L33.9389 26.5696L40.9389 26.9981L41.0611 25.0019ZM35 25.5714V23.4898H33V25.5714H35ZM34.0698 24.4874L41.0698 23.9976L40.9302 22.0024L33.9302 22.4922L34.0698 24.4874ZM40 17V23H42V17H40ZM33.9389 17.5696L40.9389 17.9981L41.0611 16.0019L34.0611 15.5733L33.9389 17.5696ZM33 14.4898V16.5714H35V14.4898H33ZM40.9302 13.0024L33.9302 13.4922L34.0698 15.4874L41.0698 14.9976L40.9302 13.0024ZM40 8V14H42V8H40ZM33.9389 8.56956L40.9389 8.99813L41.0611 7.00187L34.0611 6.5733L33.9389 8.56956ZM33 5.4898V7.57143H35V5.4898H33ZM40.9302 4.00244L33.9302 4.49223L34.0698 6.48736L41.0698 5.99756L40.9302 4.00244ZM40 1.05785V5H42V1.05785H40Z" fill="black" mask="url(#path-3-inside-1)">

</path>
<animateTransform attributeName="transform"
                    type="scale" from="1" to="1.04" additive="replace"
                    repeatCount="indefinite" dur="1s" fill="freeze"/>

</svg>
