<svg width="39" height="38" viewBox="0 0 39 38" fill="none" xmlns="http://www.w3.org/2000/svg">
<mask id="path-1-outside-1" maskUnits="userSpaceOnUse" x="0" y="2.99997" width="26" height="32" fill="black">
<rect fill="white" y="2.99997" width="26" height="32"/>
<path fill-rule="evenodd" clip-rule="evenodd" d="M25 3.99997L15 9.45451C15 9.45451 14.5299 9.59981 13.878 10.0607V10.0511L1 12V27.5L13.4502 29.1699C14.314 29.7843 15 29.9091 15 29.9091L25 34V18.876V3.99997Z"/>
</mask>
<path fill-rule="evenodd" clip-rule="evenodd" d="M25 3.99997L15 9.45451C15 9.45451 14.5299 9.59981 13.878 10.0607V10.0511L1 12V27.5L13.4502 29.1699C14.314 29.7843 15 29.9091 15 29.9091L25 34V18.876V3.99997Z" fill="#333333"/>
<path d="M15 9.45451L15.2953 10.4099C15.3589 10.3903 15.4204 10.3643 15.4789 10.3324L15 9.45451ZM25 3.99997H26C26 3.64703 25.814 3.32023 25.5105 3.14007C25.207 2.95991 24.831 2.95307 24.5211 3.12207L25 3.99997ZM13.878 10.0607H12.878C12.878 10.4345 13.0864 10.777 13.4183 10.9488C13.7502 11.1206 14.1502 11.093 14.4554 10.8773L13.878 10.0607ZM13.878 10.0511H14.878C14.878 9.75981 14.751 9.48295 14.5301 9.29298C14.3092 9.10301 14.0165 9.01881 13.7284 9.06241L13.878 10.0511ZM1 12L0.850372 11.0113C0.361436 11.0852 0 11.5055 0 12H1ZM1 27.5H0C0 28.0009 0.370604 28.4245 0.867064 28.4911L1 27.5ZM13.4502 29.1699L14.0298 28.355C13.8974 28.2609 13.7441 28.2004 13.5831 28.1788L13.4502 29.1699ZM15 29.9091L15.3786 28.9835C15.3143 28.9572 15.2473 28.9376 15.1789 28.9252L15 29.9091ZM25 34L24.6214 34.9255C24.9298 35.0517 25.2807 35.0159 25.5574 34.8302C25.834 34.6445 26 34.3332 26 34H25ZM15.4789 10.3324L25.4789 4.87787L24.5211 3.12207L14.5211 8.57662L15.4789 10.3324ZM14.4554 10.8773C14.7293 10.6836 14.9587 10.5607 15.1104 10.4891C15.1862 10.4533 15.2424 10.4304 15.2747 10.418C15.2908 10.4118 15.301 10.4082 15.3046 10.407C15.3064 10.4064 15.3066 10.4063 15.3051 10.4068C15.3043 10.4071 15.3031 10.4075 15.3015 10.408C15.3007 10.4082 15.2998 10.4085 15.2987 10.4088C15.2982 10.409 15.2977 10.4092 15.2971 10.4094C15.2968 10.4094 15.2965 10.4095 15.2962 10.4096C15.2961 10.4097 15.2959 10.4097 15.2958 10.4098C15.2955 10.4098 15.2953 10.4099 15 9.45451C14.7047 8.49911 14.7045 8.49919 14.7042 8.49926C14.7041 8.49929 14.7039 8.49936 14.7037 8.49941C14.7034 8.49951 14.7031 8.49962 14.7027 8.49972C14.702 8.49994 14.7013 8.50016 14.7006 8.50039C14.6991 8.50086 14.6975 8.50137 14.6958 8.50192C14.6923 8.50301 14.6884 8.50427 14.684 8.5057C14.6753 8.50855 14.6647 8.51208 14.6524 8.51633C14.6278 8.52482 14.5961 8.5362 14.558 8.55082C14.4819 8.58006 14.3798 8.62232 14.2566 8.68047C14.0103 8.79675 13.6787 8.97697 13.3007 9.24424L14.4554 10.8773ZM12.878 10.0511V10.0607H14.878V10.0511H12.878ZM1.14963 12.9887L14.0277 11.0399L13.7284 9.06241L0.850372 11.0113L1.14963 12.9887ZM2 27.5V12H0V27.5H2ZM13.5831 28.1788L1.13294 26.5089L0.867064 28.4911L13.3172 30.161L13.5831 28.1788ZM15 29.9091C15.1789 28.9252 15.1792 28.9252 15.1795 28.9253C15.1796 28.9253 15.1799 28.9254 15.1801 28.9254C15.1805 28.9255 15.1809 28.9256 15.1812 28.9256C15.182 28.9258 15.1827 28.9259 15.1834 28.926C15.1847 28.9263 15.1859 28.9265 15.1869 28.9267C15.1889 28.9271 15.1904 28.9274 15.1912 28.9275C15.1928 28.9279 15.192 28.9277 15.1888 28.927C15.1825 28.9256 15.167 28.9219 15.1433 28.9154C15.0957 28.9024 15.0153 28.878 14.9094 28.8371C14.6977 28.7553 14.3857 28.6082 14.0298 28.355L12.8705 29.9848C13.3785 30.3461 13.8414 30.5685 14.1886 30.7027C14.3622 30.7698 14.5073 30.8149 14.6154 30.8445C14.6694 30.8593 14.7142 30.8702 14.7489 30.878C14.7662 30.8819 14.7809 30.885 14.793 30.8875C14.7991 30.8887 14.8044 30.8898 14.8091 30.8907C14.8115 30.8911 14.8136 30.8915 14.8156 30.8919C14.8166 30.8921 14.8176 30.8923 14.8185 30.8925C14.819 30.8925 14.8194 30.8926 14.8198 30.8927C14.8201 30.8927 14.8204 30.8928 14.8205 30.8928C14.8208 30.8929 14.8211 30.8929 15 29.9091ZM25.3786 33.0744L15.3786 28.9835L14.6214 30.8346L24.6214 34.9255L25.3786 33.0744ZM24 18.876V34H26V18.876H24ZM24 3.99997V18.876H26V3.99997H24Z" fill="black" mask="url(#path-1-outside-1)"/>
<path d="M26 3.49997L31 1L36 0.5L36.5 3L37 6.49997L37.5 11L38 16V20V28.5L37.5 32.5L36 36.5L33 37L30 36.5L26 34.5V3.49997Z" fill="#C1A54A"/>
<path fill-rule="evenodd" clip-rule="evenodd" d="M26 3.5L25.7464 3.06903C25.5084 3.20904 25.429 3.51549 25.569 3.75351C25.709 3.99151 26.0154 4.07096 26.2534 3.931L26 3.5ZM26 3.5C25.7464 3.06903 25.7466 3.06897 25.7467 3.06888L25.7471 3.06862L25.7486 3.06776L25.7539 3.06469L25.7734 3.05329C25.7904 3.04342 25.8153 3.02904 25.8477 3.01056C25.9123 2.9736 26.0066 2.92022 26.1269 2.85359C26.3675 2.72038 26.7124 2.53403 27.1324 2.3201C27.9707 1.89301 29.1148 1.35249 30.3271 0.905827C31.5322 0.461836 32.8392 0.0975509 33.9939 0.0473465C35.1374 -0.00237171 36.2707 0.25476 36.916 1.22266C37.2619 1.74151 37.3306 2.46492 37.269 3.22438C37.2604 3.33028 37.2491 3.43866 37.2353 3.54935C37.3989 3.62242 37.4943 3.75715 37.5324 3.81716C37.6036 3.929 37.6541 4.06203 37.6928 4.18668C37.7725 4.44322 37.8408 4.79484 37.9016 5.21043C38.0242 6.0489 38.1282 7.23446 38.2135 8.64481C38.3844 11.4698 38.4828 15.2424 38.4979 19.048C38.5131 22.8536 38.445 26.7016 38.2817 29.6774C38.2002 31.1637 38.0944 32.4424 37.9616 33.3926C37.8954 33.8663 37.8206 34.2719 37.7348 34.5859C37.692 34.7426 37.6431 34.8887 37.5855 35.0142C37.5325 35.1295 37.4506 35.2762 37.3186 35.3854C37.2634 35.431 37.2013 35.4628 37.1365 35.4811C37.1344 35.5054 37.132 35.5295 37.1294 35.5534C37.0628 36.1599 36.8046 36.7588 36.1581 36.9743C32.987 38.0313 29.5925 37.6409 25.7121 34.9088C25.4863 34.7498 25.4321 34.4379 25.5911 34.2121C25.7501 33.9863 26.062 33.9322 26.2878 34.0911C29.9458 36.6667 33.0128 36.9686 35.8418 36.0256C35.9453 35.9912 36.0871 35.8838 36.1354 35.4442C36.1834 35.0071 36.1139 34.3808 35.9235 33.596C35.5453 32.0381 34.732 30.0195 33.7272 27.9975C32.7242 25.9791 31.5444 23.9854 30.4487 22.4784C29.9 21.7238 29.3813 21.1035 28.9244 20.665C28.6961 20.4458 28.4917 20.2803 28.3146 20.1669C28.1334 20.0509 28.0064 20.006 27.9292 19.995C27.7744 19.9728 27.6463 19.882 27.5714 19.7576C27.0056 20.0352 26.4075 20.1629 25.8418 19.9743C25.5799 19.887 25.4383 19.6039 25.5256 19.3419C25.6129 19.0799 25.8961 18.9383 26.1581 19.0257C26.4105 19.1098 26.7861 19.0646 27.3185 18.7601C27.8416 18.4609 28.4377 17.9544 29.0758 17.2737C30.3487 15.9157 31.7139 13.9458 32.915 11.8283C34.1153 9.71237 35.1365 7.47601 35.7327 5.59575C36.0312 4.6543 36.2175 3.81969 36.2723 3.14359C36.3287 2.44758 36.238 2.00849 36.0839 1.77734C35.7292 1.24524 35.05 1.00237 34.0373 1.0464C33.0358 1.08995 31.8427 1.41316 30.6728 1.84417C29.5102 2.27251 28.4042 2.79448 27.5863 3.21114C27.1781 3.41909 26.8434 3.59993 26.6113 3.72843C26.4953 3.79267 26.405 3.84378 26.3442 3.8786L26.2754 3.9182L26.2584 3.92809L26.2544 3.93042L26.2535 3.93092L26.2535 3.93097L26 3.5ZM36.9323 33.5171C36.9454 33.4335 36.9584 33.3458 36.9712 33.2542C37.0983 32.3451 37.2022 31.0988 37.2832 29.6226C37.445 26.6734 37.513 22.8464 37.498 19.052C37.4829 15.2576 37.3847 11.5051 37.2154 8.70518C37.1305 7.30302 37.0285 6.15108 36.9121 5.35518C36.9048 5.30502 36.8974 5.2566 36.8901 5.20992C36.8282 5.43489 36.7599 5.66456 36.6859 5.898C36.0633 7.86148 35.0096 10.1626 33.7848 12.3217C32.561 14.4792 31.1512 16.5218 29.8054 17.9576C29.3778 18.4137 28.9491 18.8169 28.5275 19.1448C28.6393 19.1959 28.7484 19.2573 28.8538 19.3248C29.1029 19.4843 29.3589 19.6959 29.6169 19.9436C30.1327 20.4387 30.6905 21.1106 31.2575 21.8903C32.393 23.4521 33.6007 25.4959 34.6227 27.5525C35.6429 29.6054 36.4921 31.6993 36.8952 33.3602C36.908 33.4128 36.9204 33.4651 36.9323 33.5171ZM28.3445 6.49132C28.0571 6.33597 27.6129 6.22865 27.0103 6.2536C26.8723 6.25931 26.7559 6.15211 26.7502 6.01415C26.7444 5.8762 26.8516 5.75974 26.9896 5.75403C27.6561 5.72644 28.1955 5.84238 28.5823 6.05146C28.966 6.25885 29.2253 6.57608 29.2483 6.94705C29.2718 7.32522 29.0443 7.66165 28.6624 7.88831C28.2818 8.11419 27.7251 8.25 26.9999 8.25C26.8619 8.25 26.7499 8.13807 26.7499 8C26.7499 7.86193 26.8619 7.75 26.9999 7.75C27.6708 7.75 28.1295 7.62316 28.4072 7.45833C28.6836 7.29429 28.7576 7.11197 28.7493 6.97796C28.7405 6.83675 28.6351 6.64837 28.3445 6.49132ZM27.0103 12.2536C27.6129 12.2287 28.0571 12.336 28.3445 12.4913C28.6351 12.6484 28.7405 12.8368 28.7493 12.978C28.7576 13.112 28.6836 13.2943 28.4072 13.4583C28.1295 13.6232 27.6708 13.75 26.9999 13.75C26.8619 13.75 26.7499 13.8619 26.7499 14C26.7499 14.1381 26.8619 14.25 26.9999 14.25C27.7251 14.25 28.2818 14.1142 28.6624 13.8883C29.0443 13.6616 29.2718 13.3252 29.2483 12.947C29.2253 12.5761 28.966 12.2589 28.5823 12.0515C28.1955 11.8424 27.6561 11.7264 26.9896 11.754C26.8516 11.7597 26.7444 11.8762 26.7502 12.0142C26.7559 12.1521 26.8723 12.2593 27.0103 12.2536ZM36.3445 11.4913C36.0571 11.336 35.6129 11.2287 35.0103 11.2536C34.8723 11.2593 34.7559 11.1521 34.7502 11.0142C34.7444 10.8762 34.8516 10.7597 34.9896 10.754C35.6561 10.7264 36.1955 10.8424 36.5823 11.0515C36.966 11.2589 37.2253 11.5761 37.2483 11.947C37.2718 12.3252 37.0443 12.6616 36.6624 12.8883C36.2818 13.1142 35.7251 13.25 34.9999 13.25C34.8619 13.25 34.7499 13.1381 34.7499 13C34.7499 12.8619 34.8619 12.75 34.9999 12.75C35.6708 12.75 36.1295 12.6232 36.4072 12.4583C36.6836 12.2943 36.7576 12.112 36.7493 11.978C36.7405 11.8368 36.6351 11.6484 36.3445 11.4913ZM35.0103 25.2536C35.6129 25.2286 36.0571 25.3359 36.3445 25.4913C36.6351 25.6483 36.7405 25.8367 36.7493 25.9779C36.7576 26.1119 36.6836 26.2943 36.4072 26.4583C36.1295 26.6231 35.6708 26.75 34.9999 26.75C34.8619 26.75 34.7499 26.8619 34.7499 27C34.7499 27.138 34.8619 27.25 34.9999 27.25C35.7251 27.25 36.2818 27.1142 36.6624 26.8883C37.0443 26.6616 37.2718 26.3252 37.2483 25.947C37.2253 25.576 36.966 25.2588 36.5823 25.0514C36.1955 24.8424 35.6561 24.7264 34.9896 24.754C34.8516 24.7597 34.7444 24.8762 34.7502 25.0141C34.7559 25.1521 34.8723 25.2593 35.0103 25.2536ZM34.3445 20.4913C34.0571 20.336 33.6129 20.2286 33.0103 20.2536C32.8723 20.2593 32.7559 20.1521 32.7502 20.0141C32.7445 19.8762 32.8517 19.7597 32.9896 19.754C33.6561 19.7264 34.1955 19.8424 34.5823 20.0515C34.966 20.2588 35.2254 20.5761 35.2483 20.947C35.2718 21.3252 35.0443 21.6616 34.6624 21.8883C34.2818 22.1142 33.7252 22.25 33 22.25C32.8619 22.25 32.75 22.1381 32.75 22C32.75 21.8619 32.8619 21.75 33 21.75C33.6708 21.75 34.1295 21.6231 34.4072 21.4583C34.6836 21.2943 34.7576 21.112 34.7493 20.9779C34.7406 20.8367 34.6351 20.6484 34.3445 20.4913ZM33.0103 16.2536C33.6129 16.2286 34.0571 16.336 34.3445 16.4913C34.6351 16.6484 34.7406 16.8367 34.7493 16.978C34.7576 17.112 34.6836 17.2943 34.4072 17.4583C34.1295 17.6231 33.6708 17.75 33 17.75C32.8619 17.75 32.75 17.8619 32.75 18C32.75 18.1381 32.8619 18.25 33 18.25C33.7252 18.25 34.2818 18.1142 34.6624 17.8883C35.0443 17.6616 35.2718 17.3252 35.2483 16.947C35.2254 16.5761 34.966 16.2588 34.5823 16.0515C34.1955 15.8424 33.6561 15.7264 32.9896 15.754C32.8517 15.7597 32.7445 15.8762 32.7502 16.0141C32.7559 16.1521 32.8723 16.2593 33.0103 16.2536ZM28.3445 24.4913C28.0571 24.3359 27.6129 24.2286 27.0103 24.2536C26.8723 24.2593 26.7559 24.1521 26.7502 24.0141C26.7444 23.8762 26.8516 23.7597 26.9896 23.754C27.6561 23.7264 28.1955 23.8424 28.5823 24.0514C28.966 24.2588 29.2253 24.576 29.2483 24.947C29.2718 25.3252 29.0443 25.6616 28.6624 25.8883C28.2818 26.1142 27.7251 26.25 26.9999 26.25C26.8619 26.25 26.7499 26.138 26.7499 26C26.7499 25.8619 26.8619 25.75 26.9999 25.75C27.6708 25.75 28.1295 25.6231 28.4072 25.4583C28.6836 25.2943 28.7576 25.1119 28.7493 24.9779C28.7405 24.8367 28.6351 24.6483 28.3445 24.4913ZM27.0103 30.2536C27.6129 30.2286 28.0571 30.3359 28.3445 30.4913C28.6351 30.6483 28.7406 30.8367 28.7493 30.9779C28.7576 31.1119 28.6836 31.2943 28.4072 31.4583C28.1295 31.6231 27.6708 31.75 27 31.75C26.8619 31.75 26.75 31.8619 26.75 32C26.75 32.138 26.8619 32.25 27 32.25C27.7252 32.25 28.2818 32.1142 28.6624 31.8883C29.0443 31.6616 29.2718 31.3252 29.2483 30.947C29.2254 30.5761 28.966 30.2588 28.5823 30.0514C28.1955 29.8424 27.6561 29.7264 26.9896 29.754C26.8517 29.7597 26.7445 29.8762 26.7502 30.0141C26.7559 30.1521 26.8723 30.2593 27.0103 30.2536ZM32.3445 27.4913C32.0571 27.3359 31.6129 27.2286 31.0103 27.2536C30.8723 27.2593 30.7559 27.1521 30.7502 27.0141C30.7444 26.8762 30.8516 26.7597 30.9896 26.754C31.6561 26.7264 32.1955 26.8424 32.5823 27.0514C32.966 27.2588 33.2253 27.576 33.2483 27.947C33.2718 28.3252 33.0443 28.6616 32.6624 28.8883C32.2818 29.1142 31.7251 29.25 30.9999 29.25C30.8619 29.25 30.7499 29.138 30.7499 29C30.7499 28.8619 30.8619 28.75 30.9999 28.75C31.6708 28.75 32.1295 28.6231 32.4072 28.4583C32.6836 28.2943 32.7576 28.1119 32.7493 27.9779C32.7405 27.8367 32.6351 27.6483 32.3445 27.4913ZM32.0103 32.2536C32.6129 32.2286 33.0571 32.3359 33.3445 32.4913C33.6351 32.6483 33.7405 32.8367 33.7493 32.9779C33.7576 33.1119 33.6836 33.2943 33.4072 33.4583C33.1295 33.6231 32.6708 33.75 31.9999 33.75C31.8619 33.75 31.7499 33.8619 31.7499 34C31.7499 34.138 31.8619 34.25 31.9999 34.25C32.7251 34.25 33.2818 34.1142 33.6624 33.8883C34.0443 33.6616 34.2718 33.3252 34.2483 32.947C34.2253 32.576 33.966 32.2588 33.5823 32.0514C33.1955 31.8424 32.6561 31.7264 31.9896 31.754C31.8516 31.7597 31.7444 31.8762 31.7502 32.0141C31.7559 32.1521 31.8723 32.2593 32.0103 32.2536ZM33.3445 3.49132C33.0571 3.33597 32.6129 3.22865 32.0103 3.2536C31.8723 3.25931 31.7559 3.1521 31.7502 3.01415C31.7444 2.8762 31.8516 2.75974 31.9896 2.75403C32.6561 2.72644 33.1955 2.84238 33.5823 3.05146C33.966 3.25885 34.2253 3.57608 34.2483 3.94705C34.2718 4.32522 34.0443 4.66165 33.6624 4.88831C33.2818 5.11419 32.7251 5.25 31.9999 5.25C31.8619 5.25 31.7499 5.13807 31.7499 5C31.7499 4.86193 31.8619 4.75 31.9999 4.75C32.6708 4.75 33.1295 4.62316 33.4072 4.45833C33.6836 4.29429 33.7576 4.11197 33.7493 3.97796C33.7405 3.83675 33.6351 3.64837 33.3445 3.49132ZM31.0103 8.2536C31.6129 8.22865 32.0571 8.33597 32.3445 8.49132C32.6351 8.64837 32.7405 8.83675 32.7493 8.97796C32.7576 9.11197 32.6836 9.29429 32.4072 9.45833C32.1295 9.62316 31.6708 9.75 30.9999 9.75C30.8619 9.75 30.7499 9.86193 30.7499 10C30.7499 10.1381 30.8619 10.25 30.9999 10.25C31.7251 10.25 32.2818 10.1142 32.6624 9.88831C33.0443 9.66165 33.2718 9.32522 33.2483 8.94705C33.2253 8.57608 32.966 8.25885 32.5823 8.05146C32.1955 7.84238 31.6561 7.72644 30.9896 7.75403C30.8516 7.75974 30.7444 7.8762 30.7502 8.01415C30.7559 8.15211 30.8723 8.25931 31.0103 8.2536Z" fill="black"/>
<path d="M14 9.5C12.8 9.97591 11 15.697 11 19.7561C11 23.8152 12.8 29.5241 14 30" stroke="black"/>

<animateTransform attributeName="transform"
                    type="scale" values="1 ; 1.07 ; 1" additive="replace"
                    repeatCount="indefinite" dur="1s" fill="freeze"/>
</svg>
