<svg width="37" height="36" viewBox="0 0 37 36" fill="none" xmlns="http://www.w3.org/2000/svg">
<mask id="path-1-outside-1" maskUnits="userSpaceOnUse" x="0" y="1.99997" width="24" height="32" fill="black">
<rect fill="white" y="1.99997" width="24" height="32"/>
<path fill-rule="evenodd" clip-rule="evenodd" d="M23 2.99997L13 8.45451V9.05115H1V28.2273H13V28.9091L23 33V17.876V2.99997Z"/>
</mask>
<path fill-rule="evenodd" clip-rule="evenodd" d="M23 2.99997L13 8.45451V9.05115H1V28.2273H13V28.9091L23 33V17.876V2.99997Z" fill="#333333"/>
<path d="M13 8.45451L12.5211 7.57662C12.1999 7.75185 12 8.08857 12 8.45451H13ZM23 2.99997H24C24 2.64703 23.814 2.32023 23.5105 2.14007C23.207 1.95991 22.831 1.95307 22.5211 2.12207L23 2.99997ZM13 9.05115V10.0511C13.5523 10.0511 14 9.60343 14 9.05115H13ZM1 9.05115V8.05115C0.447715 8.05115 0 8.49886 0 9.05115H1ZM1 28.2273H0C0 28.7796 0.447715 29.2273 1 29.2273L1 28.2273ZM13 28.2273H14C14 27.675 13.5523 27.2273 13 27.2273V28.2273ZM13 28.9091H12C12 29.3151 12.2455 29.6809 12.6214 29.8346L13 28.9091ZM23 33L22.6214 33.9255C22.9298 34.0517 23.2807 34.0159 23.5574 33.8302C23.834 33.6445 24 33.3332 24 33H23ZM13.4789 9.33241L23.4789 3.87787L22.5211 2.12207L12.5211 7.57662L13.4789 9.33241ZM14 9.05115V8.45451H12V9.05115H14ZM1 10.0511H13V8.05115H1V10.0511ZM2 28.2273V9.05115H0V28.2273H2ZM13 27.2273H1V29.2273H13V27.2273ZM14 28.9091V28.2273H12V28.9091H14ZM23.3786 32.0744L13.3786 27.9835L12.6214 29.8346L22.6214 33.9255L23.3786 32.0744ZM22 17.876V33H24V17.876H22ZM22 2.99997V17.876H24V2.99997H22Z" fill="black" mask="url(#path-1-outside-1)"/>
<path d="M24 2.49997L34 0.999969L35 5.49997L35.5 9.99997L36 15V19V27.5L35.5 31.5L34 35.5L24 33.5V2.49997Z" fill="#C1A54A"/>
<path fill-rule="evenodd" clip-rule="evenodd" d="M34.8691 0.162733C34.9861 0.290848 35.0284 0.470503 34.9807 0.63737C34.8137 1.22201 34.6113 1.8813 34.3785 2.5935C34.5971 2.70763 34.7526 2.90586 34.8553 3.07118C35.0263 3.34659 35.1693 3.71778 35.2935 4.14242C35.5442 4.99922 35.7541 6.20009 35.9252 7.61496C36.2684 10.4522 36.4655 14.2347 36.4958 18.046C36.5262 21.8572 36.3899 25.7158 36.0619 28.7045C35.8982 30.1963 35.6849 31.4899 35.4142 32.458C35.2793 32.9409 35.1246 33.3629 34.9437 33.6939C34.7759 34.0008 34.5467 34.302 34.222 34.4487C34.3168 34.7761 34.4037 35.0834 34.4819 35.367C34.5281 35.5343 34.4842 35.7136 34.366 35.8406C34.2477 35.9677 34.0721 36.0243 33.9019 35.9903L23.9019 33.9903C23.6311 33.9361 23.4555 33.6727 23.5097 33.4019C23.5638 33.1312 23.8272 32.9555 24.098 33.0097L33.2968 34.8495C32.5902 32.396 31.4114 28.7369 30.0877 25.5282C29.3502 23.7402 28.5753 22.1111 27.8205 20.9116C27.4427 20.3111 27.0804 19.8355 26.7426 19.5038C26.397 19.1645 26.1245 19.0229 25.9292 18.995C25.7857 18.9745 25.6651 18.8949 25.5887 18.7843C25.0327 19.0662 24.4355 19.1722 23.8418 18.9743C23.5799 18.887 23.4383 18.6039 23.5256 18.3419C23.6129 18.0799 23.8961 17.9383 24.1581 18.0257C24.4418 18.1202 24.7729 18.0871 25.1809 17.8693C25.5965 17.6474 26.0562 17.2507 26.5478 16.6858C27.5294 15.5578 28.5509 13.8614 29.528 11.9133C31.3115 8.35775 32.8977 4.06481 33.788 1.14462L24.0935 2.99118C23.8222 3.04285 23.5605 2.86483 23.5088 2.59356C23.4571 2.3223 23.6351 2.06051 23.9064 2.00884L34.4064 0.0088405C34.5769 -0.0236317 34.752 0.0346182 34.8691 0.162733ZM26.5219 18.1348C26.8527 18.2773 27.1609 18.5131 27.4432 18.7903C27.858 19.1976 28.2677 19.7446 28.6669 20.379C29.4662 21.6493 30.2664 23.3389 31.0122 25.1468C32.1609 27.9316 33.1989 31.042 33.9219 33.4351C33.962 33.3862 34.0109 33.3155 34.0662 33.2143C34.196 32.9769 34.3262 32.6357 34.4512 32.1888C34.7003 31.2976 34.9065 30.0662 35.0679 28.5955C35.3901 25.6592 35.526 21.8428 35.4959 18.054C35.4657 14.2653 35.2697 10.5228 34.9324 7.73505C34.7634 6.33743 34.5612 5.2008 34.3337 4.42322C34.2275 4.06019 34.1232 3.8018 34.0286 3.63709C33.1029 6.33159 31.8243 9.56582 30.4219 12.3617C29.4323 14.3345 28.3663 16.1193 27.3021 17.3423C27.0467 17.6358 26.7863 17.903 26.5219 18.1348ZM26.3445 4.49133C26.0571 4.33598 25.6129 4.22866 25.0103 4.25361C24.8723 4.25932 24.7559 4.15211 24.7502 4.01416C24.7445 3.87621 24.8517 3.75974 24.9896 3.75403C25.6561 3.72645 26.1955 3.84239 26.5823 4.05147C26.966 4.25886 27.2254 4.57609 27.2483 4.94706C27.2718 5.32523 27.0443 5.66166 26.6624 5.88832C26.2818 6.11419 25.7252 6.25001 25 6.25001C24.8619 6.25001 24.75 6.13808 24.75 6.00001C24.75 5.86194 24.8619 5.75001 25 5.75001C25.6708 5.75001 26.1295 5.62316 26.4072 5.45834C26.6836 5.2943 26.7576 5.11198 26.7493 4.97797C26.7406 4.83676 26.6351 4.64838 26.3445 4.49133ZM25.0103 9.2536C25.6129 9.22866 26.0571 9.33597 26.3445 9.49132C26.6351 9.64837 26.7406 9.83676 26.7493 9.97797C26.7576 10.112 26.6836 10.2943 26.4072 10.4583C26.1295 10.6232 25.6708 10.75 25 10.75C24.8619 10.75 24.75 10.8619 24.75 11C24.75 11.1381 24.8619 11.25 25 11.25C25.7252 11.25 26.2818 11.1142 26.6624 10.8883C27.0443 10.6617 27.2718 10.3252 27.2483 9.94705C27.2254 9.57608 26.966 9.25886 26.5823 9.05147C26.1955 8.84239 25.6561 8.72644 24.9896 8.75403C24.8517 8.75974 24.7445 8.8762 24.7502 9.01416C24.7559 9.15211 24.8723 9.25931 25.0103 9.2536ZM33.3445 10.4913C33.0571 10.336 32.6129 10.2287 32.0103 10.2536C31.8723 10.2593 31.7559 10.1521 31.7502 10.0142C31.7445 9.8762 31.8517 9.75974 31.9896 9.75403C32.6561 9.72644 33.1955 9.84239 33.5823 10.0515C33.966 10.2589 34.2254 10.5761 34.2483 10.9471C34.2718 11.3252 34.0443 11.6617 33.6624 11.8883C33.2818 12.1142 32.7252 12.25 32 12.25C31.8619 12.25 31.75 12.1381 31.75 12C31.75 11.8619 31.8619 11.75 32 11.75C32.6708 11.75 33.1295 11.6232 33.4072 11.4583C33.6836 11.2943 33.7576 11.112 33.7493 10.978C33.7406 10.8368 33.6351 10.6484 33.3445 10.4913ZM32.0103 24.2536C32.6129 24.2286 33.0571 24.336 33.3445 24.4913C33.6351 24.6484 33.7406 24.8367 33.7493 24.978C33.7576 25.112 33.6836 25.2943 33.4072 25.4583C33.1295 25.6232 32.6708 25.75 32 25.75C31.8619 25.75 31.75 25.8619 31.75 26C31.75 26.1381 31.8619 26.25 32 26.25C32.7252 26.25 33.2818 26.1142 33.6624 25.8883C34.0443 25.6616 34.2718 25.3252 34.2483 24.947C34.2254 24.5761 33.966 24.2588 33.5823 24.0515C33.1955 23.8424 32.6561 23.7264 31.9896 23.754C31.8517 23.7597 31.7445 23.8762 31.7502 24.0141C31.7559 24.1521 31.8723 24.2593 32.0103 24.2536ZM32.3445 19.4913C32.0571 19.336 31.6129 19.2287 31.0103 19.2536C30.8723 19.2593 30.7559 19.1521 30.7502 19.0142C30.7445 18.8762 30.8517 18.7597 30.9896 18.754C31.6561 18.7264 32.1955 18.8424 32.5823 19.0515C32.966 19.2589 33.2254 19.5761 33.2483 19.947C33.2718 20.3252 33.0443 20.6616 32.6624 20.8883C32.2818 21.1142 31.7252 21.25 31 21.25C30.8619 21.25 30.75 21.1381 30.75 21C30.75 20.8619 30.8619 20.75 31 20.75C31.6708 20.75 32.1295 20.6232 32.4072 20.4583C32.6836 20.2943 32.7576 20.112 32.7493 19.978C32.7406 19.8368 32.6351 19.6484 32.3445 19.4913ZM31.0103 15.2536C31.6129 15.2287 32.0571 15.336 32.3445 15.4913C32.6351 15.6484 32.7406 15.8368 32.7493 15.978C32.7576 16.112 32.6836 16.2943 32.4072 16.4583C32.1295 16.6232 31.6708 16.75 31 16.75C30.8619 16.75 30.75 16.8619 30.75 17C30.75 17.1381 30.8619 17.25 31 17.25C31.7252 17.25 32.2818 17.1142 32.6624 16.8883C33.0443 16.6617 33.2718 16.3252 33.2483 15.9471C33.2254 15.5761 32.966 15.2589 32.5823 15.0515C32.1955 14.8424 31.6561 14.7264 30.9896 14.754C30.8517 14.7597 30.7445 14.8762 30.7502 15.0142C30.7559 15.1521 30.8723 15.2593 31.0103 15.2536ZM26.3445 24.4913C26.0571 24.336 25.6129 24.2286 25.0103 24.2536C24.8723 24.2593 24.7559 24.1521 24.7502 24.0141C24.7445 23.8762 24.8517 23.7597 24.9896 23.754C25.6561 23.7264 26.1955 23.8424 26.5823 24.0515C26.966 24.2588 27.2254 24.5761 27.2483 24.947C27.2718 25.3252 27.0443 25.6616 26.6624 25.8883C26.2818 26.1142 25.7252 26.25 25 26.25C24.8619 26.25 24.75 26.1381 24.75 26C24.75 25.8619 24.8619 25.75 25 25.75C25.6708 25.75 26.1295 25.6232 26.4072 25.4583C26.6836 25.2943 26.7576 25.112 26.7493 24.978C26.7406 24.8367 26.6351 24.6484 26.3445 24.4913ZM25.0103 29.2536C25.6129 29.2286 26.0571 29.336 26.3445 29.4913C26.6351 29.6484 26.7406 29.8367 26.7493 29.978C26.7576 30.112 26.6836 30.2943 26.4072 30.4583C26.1295 30.6232 25.6708 30.75 25 30.75C24.8619 30.75 24.75 30.8619 24.75 31C24.75 31.1381 24.8619 31.25 25 31.25C25.7252 31.25 26.2818 31.1142 26.6624 30.8883C27.0443 30.6616 27.2718 30.3252 27.2483 29.947C27.2254 29.5761 26.966 29.2588 26.5823 29.0515C26.1955 28.8424 25.6561 28.7264 24.9896 28.754C24.8517 28.7597 24.7445 28.8762 24.7502 29.0141C24.7559 29.1521 24.8723 29.2593 25.0103 29.2536ZM29.3445 27.4913C29.0571 27.336 28.6129 27.2286 28.0103 27.2536C27.8723 27.2593 27.7559 27.1521 27.7502 27.0141C27.7445 26.8762 27.8517 26.7597 27.9896 26.754C28.6561 26.7264 29.1955 26.8424 29.5823 27.0515C29.966 27.2588 30.2254 27.5761 30.2483 27.947C30.2718 28.3252 30.0443 28.6616 29.6624 28.8883C29.2818 29.1142 28.7252 29.25 28 29.25C27.8619 29.25 27.75 29.1381 27.75 29C27.75 28.8619 27.8619 28.75 28 28.75C28.6708 28.75 29.1295 28.6232 29.4072 28.4583C29.6836 28.2943 29.7576 28.112 29.7493 27.978C29.7406 27.8367 29.6351 27.6484 29.3445 27.4913ZM29.0103 31.2536C29.6129 31.2286 30.0571 31.336 30.3445 31.4913C30.6351 31.6484 30.7406 31.8367 30.7493 31.978C30.7576 32.112 30.6836 32.2943 30.4072 32.4583C30.1295 32.6231 29.6708 32.75 29 32.75C28.8619 32.75 28.75 32.8619 28.75 33C28.75 33.1381 28.8619 33.25 29 33.25C29.7252 33.25 30.2818 33.1142 30.6624 32.8883C31.0443 32.6616 31.2718 32.3252 31.2483 31.947C31.2254 31.5761 30.966 31.2588 30.5823 31.0515C30.1955 30.8424 29.6561 30.7264 28.9896 30.754C28.8517 30.7597 28.7445 30.8762 28.7502 31.0141C28.7559 31.1521 28.8723 31.2593 29.0103 31.2536ZM30.3445 3.49133C30.0571 3.33598 29.6129 3.22866 29.0103 3.25361C28.8723 3.25932 28.7559 3.15211 28.7502 3.01416C28.7445 2.87621 28.8517 2.75975 28.9896 2.75404C29.6561 2.72645 30.1955 2.84239 30.5823 3.05147C30.966 3.25886 31.2254 3.57609 31.2483 3.94706C31.2718 4.32523 31.0443 4.66166 30.6624 4.88832C30.2818 5.11419 29.7252 5.25001 29 5.25001C28.8619 5.25001 28.75 5.13808 28.75 5.00001C28.75 4.86194 28.8619 4.75001 29 4.75001C29.6708 4.75001 30.1295 4.62316 30.4072 4.45834C30.6836 4.2943 30.7576 4.11198 30.7493 3.97797C30.7406 3.83676 30.6351 3.64838 30.3445 3.49133ZM28.0103 8.2536C28.6129 8.22866 29.0571 8.33597 29.3445 8.49133C29.6351 8.64837 29.7406 8.83676 29.7493 8.97797C29.7576 9.11198 29.6836 9.2943 29.4072 9.45833C29.1295 9.62316 28.6708 9.75 28 9.75C27.8619 9.75 27.75 9.86193 27.75 10C27.75 10.1381 27.8619 10.25 28 10.25C28.7252 10.25 29.2818 10.1142 29.6624 9.88832C30.0443 9.66165 30.2718 9.32523 30.2483 8.94705C30.2254 8.57609 29.966 8.25886 29.5823 8.05147C29.1955 7.84239 28.6561 7.72644 27.9896 7.75403C27.8517 7.75974 27.7445 7.87621 27.7502 8.01416C27.7559 8.15211 27.8723 8.25932 28.0103 8.2536Z" fill="black"/>

<animateTransform attributeName="transform"
                    type="scale" values="1 ; 1.07 ; 1" additive="replace"
                    repeatCount="indefinite" dur="1s" fill="freeze"/>
</svg>
